<svg width="24" height="23" viewBox="0 0 24 23" fill="none" xmlns="http://www.w3.org/2000/svg">
<path d="M19.64 22.8318L17.88 20.9438C15.992 22.0638 14.168 22.4798 11.8 22.4798C5.07996 22.4798 0.407959 17.8718 0.407959 11.3438C0.407959 4.84778 5.07996 0.175781 11.8 0.175781C18.52 0.175781 23.192 4.84778 23.192 11.3438C23.192 15.3438 21.528 17.6478 20.376 18.9278L23.832 22.4158L19.64 22.8318ZM15.032 13.4238L17.496 15.9518C18.168 15.0558 18.904 13.7118 18.904 11.3438C18.904 7.02378 15.96 3.95178 11.8 3.95178C7.63996 3.95178 4.69596 7.02378 4.69596 11.3438C4.69596 15.6318 7.60796 18.7038 11.896 18.7038C13.336 18.7038 14.296 18.3838 15.064 17.9998L10.712 13.7758L15.032 13.4238Z" fill="white"/>
</svg>
