<?xml version="1.0" encoding="utf-8"?>
<!-- Generator: Adobe Illustrator 27.7.0, SVG Export Plug-In . SVG Version: 6.00 Build 0)  -->
<svg version="1.1" id="レイヤー_1" xmlns="http://www.w3.org/2000/svg" xmlns:xlink="http://www.w3.org/1999/xlink" x="0px"
	 y="0px" viewBox="0 0 100 100" style="enable-background:new 0 0 100 100;" xml:space="preserve">
<style type="text/css">
	.st0{fill:none;}
	.st1{fill:#FFFFFF;}
</style>
<g id="グループ_14459" transform="translate(95)">
	<rect id="長方形_11153" x="-95" class="st0" width="100" height="100"/>
	<path class="st1" d="M1.2,50.3C1.2,24.7-19.5,4-45,4s-46.2,20.7-46.2,46.2c0,23.1,16.9,42.2,39,45.7V63.6H-64V50.3h11.7V40.1
		c0-11.6,6.9-18,17.5-18c5.1,0,10.4,0.9,10.4,0.9v11.4h-5.8c-5.7,0-7.5,3.6-7.5,7.2v8.7h12.8L-27,63.6h-10.8V96
		C-15.7,92.5,1.2,73.4,1.2,50.3z"/>
</g>
</svg>
