<?xml version="1.0" encoding="utf-8"?>
<!-- Generator: Adobe Illustrator 27.7.0, SVG Export Plug-In . SVG Version: 6.00 Build 0)  -->
<svg version="1.1" id="レイヤー_1" xmlns="http://www.w3.org/2000/svg" xmlns:xlink="http://www.w3.org/1999/xlink" x="0px"
	 y="0px" viewBox="0 0 100 100" style="enable-background:new 0 0 100 100;" xml:space="preserve">
<style type="text/css">
	.st0{fill:none;}
	.st1{fill:#FFFFFF;}
</style>
<g id="グループ_8575" transform="translate(612 6980)">
	<rect id="長方形_5731" x="-612" y="-6980" class="st0" width="100" height="100"/>
	<g id="レイヤー_2_00000161619708985313172770000011993611612523235509_" transform="translate(4.097 3.952)">
		<g id="使用アイコン">
			<path id="パス_1592" class="st1" d="M-566-6968c11.1,0,12.4,0,16.8,0.2c2.6,0,5.2,0.5,7.7,1.4c1.8,0.7,3.4,1.7,4.8,3.1
				c1.4,1.3,2.4,3,3.1,4.8c0.9,2.5,1.4,5.1,1.4,7.7c0.2,4.4,0.2,5.7,0.2,16.8s0,12.4-0.2,16.8c0,2.6-0.5,5.3-1.4,7.7
				c-1.4,3.6-4.3,6.5-7.9,7.9c-2.5,0.9-5.1,1.4-7.7,1.4c-4.4,0.2-5.7,0.2-16.8,0.2s-12.4,0-16.8-0.2c-2.6,0-5.3-0.5-7.7-1.4
				c-1.8-0.7-3.4-1.7-4.8-3.1c-1.4-1.3-2.4-3-3.1-4.8c-0.9-2.5-1.4-5.1-1.4-7.7c-0.2-4.4-0.2-5.7-0.2-16.8s0-12.4,0.2-16.8
				c0-2.6,0.5-5.2,1.4-7.7c0.7-1.8,1.7-3.4,3.1-4.8c1.3-1.4,3-2.4,4.8-3.1c2.5-0.9,5.1-1.4,7.7-1.4C-578.4-6968-577.1-6968-566-6968
				 M-566-6975.5c-11.3,0-12.7,0-17.2,0.2c-3.4,0.1-6.9,0.7-10.1,1.9c-2.8,1.1-5.3,2.7-7.4,4.8c-2.1,2.1-3.8,4.6-4.8,7.4
				c-1.2,3.2-1.8,6.6-1.9,10.1c-0.2,4.5-0.2,5.9-0.2,17.2c0,11.3,0,12.7,0.2,17.1c0.1,3.5,0.7,6.9,1.9,10.1c1,2.8,2.7,5.3,4.8,7.4
				s4.6,3.8,7.4,4.8c3.2,1.2,6.6,1.9,10.1,1.9c4.4,0.2,5.9,0.2,17.1,0.2c11.3,0,12.7,0,17.1-0.2c3.5-0.1,6.9-0.7,10.1-1.9
				c5.6-2.1,10.1-6.6,12.2-12.2c1.2-3.2,1.9-6.6,1.9-10.1c0.2-4.4,0.2-5.9,0.2-17.1c0-11.3,0-12.7-0.2-17.1
				c-0.1-3.4-0.7-6.9-1.9-10.1c-1-2.8-2.7-5.3-4.8-7.4s-4.6-3.8-7.4-4.9c-3.2-1.2-6.7-1.8-10.1-1.9
				C-553.3-6975.5-554.7-6975.5-566-6975.5z"/>
			<path id="パス_1593" class="st1" d="M-566-6955.3c-11.8,0-21.3,9.5-21.3,21.3s9.5,21.3,21.3,21.3s21.3-9.5,21.3-21.3
				c0-5.6-2.2-11.1-6.2-15.1C-554.9-6953-560.3-6955.3-566-6955.3z M-566-6920.1c-7.6,0-13.8-6.2-13.8-13.8
				c0-7.6,6.2-13.8,13.8-13.8s13.8,6.2,13.8,13.8l0,0C-552.2-6926.3-558.4-6920.1-566-6920.1z"/>
			<ellipse id="楕円形_173" class="st1" cx="-543.8" cy="-6956.1" rx="5" ry="5"/>
		</g>
	</g>
</g>
</svg>
