<svg width="37" height="36" viewBox="0 0 37 36" fill="none" xmlns="http://www.w3.org/2000/svg">
<g clip-path="url(#clip0_152_2311)">
<path d="M21.4087 29.7299C21.4087 31.6934 21.4087 33.6555 21.4087 35.6191C21.4087 35.9985 21.4559 36.0386 21.8335 35.9692C25.1692 35.3568 28.162 34.0072 30.6638 31.7613C36.1599 26.8254 38.1346 20.7171 36.3754 13.6356C34.1978 4.86813 25.5453 -1.17841 15.7442 0.194404C12.0198 0.715763 8.72654 2.23357 5.98714 4.76632C1.44455 8.96342 -0.542732 14.14 0.12599 20.2405C0.56184 24.2186 2.22971 27.6676 5.03048 30.5782C7.78719 33.4442 11.156 35.2273 15.1006 35.9677C15.5333 36.0494 15.5727 36.0109 15.5727 35.5651C15.5727 31.6734 15.5727 27.7817 15.5727 23.89C15.5727 23.4658 15.5396 23.4334 15.0944 23.4334C13.8403 23.4304 12.5847 23.4257 11.3306 23.4365C10.9986 23.4396 10.8633 23.3363 10.868 22.9877C10.8838 21.5208 10.8743 20.0554 10.8759 18.5885C10.8759 18.1211 10.8963 18.0995 11.3888 18.0995C12.6319 18.0965 13.8749 18.0995 15.1195 18.0965C15.5396 18.0965 15.5743 18.0594 15.5758 17.6507C15.5774 16.4892 15.5837 15.3262 15.5743 14.1647C15.5695 13.543 15.6026 12.9261 15.7206 12.3137C16.2493 9.56344 18.0761 7.72943 20.8454 7.2127C22.743 6.85793 24.628 7.11552 26.5114 7.37312C26.7852 7.41014 26.7868 7.60141 26.7868 7.80039C26.7868 9.04054 26.7805 10.2822 26.7915 11.5224C26.7946 11.8293 26.675 11.945 26.3635 11.9404C25.6381 11.9296 24.9128 11.9296 24.1874 11.9435C22.455 11.979 21.4228 13.0032 21.4134 14.6953C21.4071 15.6655 21.4118 16.6357 21.4134 17.6059C21.4134 18.0733 21.4386 18.098 21.9263 18.098C23.3314 18.0995 24.735 18.1026 26.1401 18.098C26.428 18.098 26.5649 18.169 26.513 18.4898C26.2691 19.9814 26.0425 21.476 25.8033 22.9692C25.731 23.4196 25.7074 23.4334 25.2196 23.435C24.115 23.4381 23.0089 23.435 21.9043 23.4365C21.4401 23.4365 21.4134 23.4643 21.4134 23.9162C21.4134 25.8567 21.4134 27.7971 21.4134 29.7376L21.4087 29.7299Z" fill="white"/>
</g>
<defs>
<clipPath id="clip0_152_2311">
<rect width="37" height="36" fill="white"/>
</clipPath>
</defs>
</svg>
