<svg width="37" height="37" viewBox="0 0 37 37" fill="none" xmlns="http://www.w3.org/2000/svg">
<g clip-path="url(#clip0_1093_792)">
<path d="M20.4794 25.1212C18.1829 25.1212 16.0237 24.2275 14.3996 22.603C13.5829 21.7861 13.5829 20.4595 14.3996 19.6403C15.2186 18.8234 16.5426 18.8234 17.3616 19.6403C18.1946 20.4735 19.3021 20.932 20.4794 20.932C21.6568 20.932 22.7643 20.4735 23.5973 19.6403L31.5199 11.7157C33.2393 9.99582 33.2393 7.19836 31.5199 5.47846C29.8004 3.75856 27.0036 3.75856 25.2842 5.47846L20.982 9.7817C20.1653 10.5986 18.8391 10.5986 18.0201 9.7817C17.201 8.96481 17.201 7.63823 18.0201 6.819L22.3222 2.51576C25.6751 -0.837935 31.129 -0.837935 34.4818 2.51576C36.1059 4.14024 36.9994 6.30001 36.9994 8.59709C36.9994 10.8942 36.1059 13.0539 34.4818 14.6784L26.5592 22.603C24.9352 24.2275 22.7759 25.1212 20.4794 25.1212Z" fill="white"/>
<path d="M8.59734 37.0002C6.39624 37.0002 4.1928 36.1623 2.51754 34.4843C0.893472 32.8598 0 30.7001 0 28.403C0 26.1059 0.893472 23.9461 2.51754 22.3217L10.4401 14.3971C12.0642 12.7726 14.2234 11.8789 16.5199 11.8789C18.8164 11.8789 20.9757 12.7726 22.5997 14.3971C23.4187 15.214 23.4187 16.5406 22.5997 17.3598C21.783 18.1767 20.4568 18.1767 19.6378 17.3598C17.9183 15.6399 15.1216 15.6399 13.4021 17.3598L5.4795 25.2844C4.64652 26.1176 4.18815 27.2254 4.18815 28.403C4.18815 29.5806 4.64652 30.6884 5.4795 31.5216C7.19897 33.2415 9.99572 33.2415 11.7152 31.5216L15.8522 27.3836C16.6712 26.5667 17.9951 26.5667 18.8141 27.3836C19.6331 28.2005 19.6331 29.5271 18.8141 30.3463L14.6771 34.4843C13.0019 36.16 10.7985 37.0002 8.59734 37.0002Z" fill="white"/>
</g>
<defs>
<clipPath id="clip0_1093_792">
<rect width="37" height="37" fill="white"/>
</clipPath>
</defs>
</svg>
