<svg width="111" height="128" viewBox="0 0 111 128" fill="none" xmlns="http://www.w3.org/2000/svg">
<g clip-path="url(#clip0_162_2388)">
<path d="M34.7172 14.3958C38.5144 18.1985 37.4069 25.4416 37.4069 25.4416C37.4069 25.4416 30.1515 26.5508 26.377 22.7481C22.6024 18.9454 23.6873 11.7023 23.6873 11.7023C23.6873 11.7023 30.9426 10.5932 34.7172 14.3958Z" fill="white"/>
<path d="M22.3537 47.284C26.1509 43.4814 33.3836 44.5905 33.3836 44.5905C33.3836 44.5905 34.4911 51.8563 30.6939 55.6363C26.8967 59.4163 19.664 58.3298 19.664 58.3298C19.664 58.3298 18.5565 51.064 22.3537 47.284Z" fill="white"/>
<path d="M21.721 28.9727C27.0777 28.9727 31.44 34.8803 31.44 34.8803C31.44 34.8803 27.1003 40.788 21.721 40.788C16.3416 40.788 12.002 34.8803 12.002 34.8803C12.002 34.8803 16.3416 28.9727 21.721 28.9727Z" fill="white"/>
<path d="M52.6861 9.73298C52.6861 15.0974 46.7869 19.466 46.7869 19.466C46.7869 19.466 40.8877 15.1201 40.8877 9.73298C40.8877 4.34589 46.7869 0 46.7869 0C46.7869 0 52.6861 4.34589 52.6861 9.73298Z" fill="white"/>
<path d="M82.476 16.5685C79.6055 19.4431 74.0905 18.6283 74.0905 18.6283C74.0905 18.6283 73.2542 13.128 76.1473 10.2308C79.0404 7.3335 84.5328 8.17099 84.5328 8.17099C84.5328 8.17099 85.3691 13.6713 82.476 16.5685Z" fill="white"/>
<path d="M75.6274 31.4397C73.209 33.8616 68.5755 33.16 68.5755 33.16C68.5755 33.16 67.8748 28.5198 70.2933 26.0979C72.7117 23.676 77.3452 24.3776 77.3452 24.3776C77.3452 24.3776 78.0459 29.0178 75.6274 31.4397Z" fill="white"/>
<path d="M84.917 41.5801C83.0184 43.4814 79.4021 42.9382 79.4021 42.9382C79.4021 42.9382 78.8596 39.3166 80.7582 37.4153C82.6568 35.5139 86.2732 36.0572 86.2732 36.0572C86.2732 36.0572 86.8156 39.6788 84.917 41.5801Z" fill="white"/>
<path d="M89.4147 30.8965C85.3463 30.8965 82.0464 26.4148 82.0464 26.4148C82.0464 26.4148 85.3463 21.9331 89.4147 21.9331C93.4832 21.9331 96.7831 26.4148 96.7831 26.4148C96.7831 26.4148 93.4832 30.8965 89.4147 30.8965Z" fill="white"/>
<path d="M67.2871 19.081C64.0324 22.3404 57.7715 21.4124 57.7715 21.4124C57.7715 21.4124 56.8222 15.1652 60.0996 11.8831C63.3769 8.60108 69.6151 9.55174 69.6151 9.55174C69.6151 9.55174 70.5644 15.799 67.2871 19.081Z" fill="white"/>
<path d="M39.9609 35.6951V35.7177V74.1969H44.7074V58.6921L52.686 50.702V43.9568L44.7074 51.9469V37.6869L52.686 29.6968V22.9517L39.9609 35.6951Z" fill="white"/>
<path d="M63.603 34.835H59.9414V69.0815H63.603V49.1402L71.5364 41.1954V35.9893L63.603 43.9568V34.835Z" fill="white"/>
<path d="M80.9164 45.9712H77.7295V60.2085H80.9164V45.9712Z" fill="white"/>
<path d="M4.15872 84.5637C5.40185 84.6089 6.8936 84.6542 8.54357 84.6542C13.7195 84.6542 16.5448 84.5637 17.8783 84.4278C17.7427 85.3106 17.6975 85.6275 17.6975 86.3744C17.6975 86.8724 17.7427 87.6646 17.8783 88.4569C14.1716 88.2305 7.88811 87.891 7.43606 87.891C7.21004 90.9467 7.21004 95.3831 7.21004 97.9861C10.5778 97.9408 14.0133 97.805 17.6975 97.624C17.5167 98.6878 17.4715 99.0952 17.4715 99.7064C17.4715 100.589 17.6523 101.087 17.6975 101.608C13.9907 101.381 10.7134 101.2 7.21004 101.2V104.437C7.21004 106.836 7.34565 112.631 7.57167 116.388C5.8991 116.207 4.56557 116.162 3.77448 116.162C2.9834 116.162 1.69507 116.207 -0.0227051 116.388C0.203318 113.016 0.338932 107.878 0.338932 104.437V96.379C0.361534 92.9159 0.22592 87.9136 -0.000102759 84.4278L4.15872 84.5637ZM45.4306 103.781C45.4306 104.279 45.4306 105.026 45.3854 105.161H32.1178C32.1178 110.707 34.378 113.966 38.3108 113.966C40.3902 113.966 42.334 113.31 44.0066 111.884L44.5717 112.291L43.5546 114.894C41.5656 116.411 39.3505 116.977 36.5705 116.977C29.7672 116.977 25.2919 112.676 25.2919 105.252C25.2919 97.8277 29.3603 93.346 36.028 93.346C41.995 93.346 45.4532 97.0581 45.4532 103.758L45.4306 103.781ZM39.2375 103.079C39.1019 97.8503 37.9944 95.451 35.8246 95.451C33.6548 95.451 32.3212 97.8503 32.1178 103.079H39.2375ZM67.7164 93.5497C67.4904 94.6135 67.4452 95.949 67.4452 96.8317C67.4452 97.8956 67.4452 98.8689 67.4904 99.9327L67.0836 100.295C66.3829 99.7969 65.6144 99.6385 64.7329 99.6385C61.9981 99.6385 60.2577 101.721 60.2577 104.12C60.2577 111.952 60.3933 113.378 60.6193 116.343C59.331 116.162 58.4495 116.117 57.1612 116.117C56.0537 116.117 55.3982 116.162 53.703 116.343C53.8386 114.487 54.0646 112.45 54.0646 106.768C54.0646 98.4388 53.929 96.5375 53.703 93.9345C55.3304 94.1156 56.3927 94.1608 56.8899 94.1608C57.3872 94.1608 58.7433 94.1156 60.0769 93.9345L59.9413 99.5932L60.0317 99.6837C61.7042 95.3831 63.8741 93.4818 67.0158 93.4818L67.7617 93.5271L67.7164 93.5497ZM82.7244 85.2201C82.7244 87.2572 81.097 88.8869 79.0628 88.8869C77.0286 88.8869 75.4012 87.2572 75.4012 85.2201C75.4012 83.1829 77.0286 81.5532 79.0628 81.5532C81.097 81.5532 82.7244 83.1829 82.7244 85.2201ZM79.0628 94.2061C80.3511 94.2061 81.2778 94.1156 82.521 93.9798C82.2045 97.5561 82.1593 101.155 82.1593 103.622C82.1593 110.141 82.2949 113.061 82.521 116.411C81.2778 116.23 80.3511 116.185 79.0628 116.185C77.7745 116.185 77.0286 116.23 75.6047 116.411C75.8307 112.563 75.9663 110.345 75.9663 103.826C75.9663 100.725 75.9211 97.5787 75.6047 94.0024C76.893 94.1382 77.7745 94.2287 79.0628 94.2287V94.2061ZM111 103.781C111 104.279 111 105.026 110.955 105.161H97.6871C97.6871 110.707 99.9473 113.966 103.88 113.966C105.96 113.966 107.903 113.31 109.576 111.884L110.141 112.291L109.124 114.894C107.135 116.411 104.92 116.977 102.14 116.977C95.3365 116.977 90.8612 112.676 90.8612 105.252C90.8612 97.8277 94.9296 93.346 101.597 93.346C107.564 93.346 111.022 97.0581 111.022 103.758L111 103.781ZM104.807 103.079C104.671 97.8503 103.564 95.451 101.394 95.451C99.2241 95.451 97.8905 97.8503 97.6871 103.079H104.807ZM0.813581 121.753C1.06221 121.753 1.33343 121.753 1.60466 121.707C1.76288 122.273 2.05671 123.111 2.46355 124.22L3.18682 126.189C3.72928 124.854 4.38475 123.201 4.882 121.707C5.01761 121.73 5.13062 121.753 5.26624 121.753C5.40185 121.753 5.51486 121.753 5.65048 121.707C4.61077 124.175 3.70668 126.415 3.20943 127.887C2.9608 127.841 2.87039 127.841 2.82519 127.841C2.77998 127.841 2.68957 127.841 2.44095 127.887C1.83069 126.189 0.677967 123.269 0.0224996 121.707C0.31633 121.73 0.564955 121.753 0.836183 121.753H0.813581ZM12.7928 124.922C12.7928 125.216 12.7702 126.823 12.7702 126.891C12.7702 127.389 12.8606 127.547 13.2449 127.547H13.2901V127.774C12.9736 127.932 12.7476 128.023 12.4764 128.023C12.0469 128.023 11.7757 127.774 11.6175 127.366C11.2785 127.841 10.9168 128.023 10.4648 128.023C9.67369 128.023 9.17644 127.525 9.17644 126.846C9.17644 126.212 9.47027 125.782 10.6004 125.51C11.5271 125.306 11.5723 125.171 11.5723 124.899C11.5723 124.446 11.2333 124.129 10.7134 124.129C10.3292 124.129 9.83191 124.356 9.65109 124.627H9.58328L9.47027 124.084C9.96752 123.677 10.5778 123.45 11.1428 123.45C12.1373 123.45 12.7702 123.903 12.7702 124.944L12.7928 124.922ZM10.9394 127.389C11.3237 127.389 11.5949 127.095 11.5949 126.506C11.5949 126.212 11.5949 125.872 11.5949 125.555C11.5271 125.601 11.3011 125.691 11.1202 125.759C10.4648 125.963 10.4196 126.415 10.4196 126.71C10.4196 127.117 10.623 127.366 10.9394 127.366V127.389ZM21.2235 123.858C21.0653 124.107 20.9748 124.401 20.8844 124.786H20.681C20.568 124.175 20.2516 123.88 19.7769 123.88C19.0989 123.88 18.7146 124.537 18.7146 125.714C18.7146 126.823 19.1893 127.389 20.0482 127.389C20.3872 127.389 20.794 127.208 20.9748 126.959L21.0879 127.049C20.9975 127.23 20.9522 127.389 20.8844 127.57C20.681 127.751 20.2516 127.955 19.6639 127.955C18.127 127.955 17.3585 127.004 17.3585 125.669C17.3585 124.333 18.3078 123.382 19.7091 123.382C20.2968 123.382 20.7714 123.518 21.2461 123.812L21.2235 123.858ZM28.8857 124.922C28.8857 125.216 28.8631 126.823 28.8631 126.891C28.8631 127.389 28.9535 127.547 29.3377 127.547H29.3829V127.774C29.0665 127.932 28.8405 128.023 28.5692 128.023C28.1398 128.023 27.8686 127.774 27.7103 127.366C27.3713 127.841 27.0097 128.023 26.5576 128.023C25.7665 128.023 25.2693 127.525 25.2693 126.846C25.2693 126.212 25.5631 125.782 26.6932 125.51C27.6199 125.306 27.6651 125.171 27.6651 124.899C27.6651 124.446 27.3261 124.129 26.8062 124.129C26.422 124.129 25.9248 124.356 25.7439 124.627H25.6761L25.5631 124.084C26.0604 123.677 26.6706 123.45 27.2357 123.45C28.2302 123.45 28.8631 123.903 28.8631 124.944L28.8857 124.922ZM27.0323 127.389C27.4165 127.389 27.6877 127.095 27.6877 126.506C27.6877 126.212 27.6877 125.872 27.6877 125.555C27.6199 125.601 27.3939 125.691 27.2131 125.759C26.5576 125.963 26.5124 126.415 26.5124 126.71C26.5124 127.117 26.7158 127.366 27.0323 127.366V127.389ZM35.1013 122.047C35.0561 122.296 35.0109 123.156 35.0109 123.631H35.802C35.802 123.631 35.7794 123.767 35.7794 123.858C35.7794 123.948 35.7794 124.016 35.802 124.084H35.0109C34.9431 124.989 34.9431 125.759 34.9431 126.076C34.9431 126.8 34.9883 127.14 35.0561 127.298C35.1239 127.457 35.2143 127.525 35.4629 127.525C35.5759 127.525 35.7568 127.525 35.8698 127.434V127.796C35.6212 127.932 35.2369 128.023 34.8979 128.023C34.1294 128.023 33.7678 127.547 33.7678 126.619C33.7678 126.393 33.8356 124.492 33.8356 124.152V124.084H33.2027C33.2027 124.084 33.2253 123.948 33.2253 123.88C33.2253 123.79 33.2253 123.699 33.2027 123.631H33.8356C33.8356 123.428 33.8356 123.224 33.7904 122.568C34.2198 122.386 34.604 122.228 35.0109 122.002L35.1013 122.07V122.047ZM41.5204 121.866C41.5204 122.251 41.2039 122.568 40.8197 122.568C40.4354 122.568 40.119 122.251 40.119 121.866C40.119 121.481 40.4354 121.164 40.8197 121.164C41.2039 121.164 41.5204 121.481 41.5204 121.866ZM40.8197 123.609C41.0683 123.609 41.2491 123.609 41.4978 123.563C41.43 124.243 41.4299 124.944 41.4299 125.42C41.4299 126.687 41.4526 127.253 41.4978 127.887C41.2491 127.841 41.0683 127.841 40.8197 127.841C40.5711 127.841 40.4354 127.841 40.1416 127.887C40.1868 127.14 40.2094 126.71 40.2094 125.442C40.2094 124.854 40.2094 124.243 40.1416 123.541C40.3902 123.563 40.5711 123.586 40.8197 123.586V123.609ZM50.2901 125.646C50.2901 127.072 49.4086 128.023 48.0976 128.023C46.7867 128.023 45.9052 127.253 45.9052 125.85C45.9052 124.356 46.8771 123.45 48.0976 123.45C49.4538 123.45 50.2901 124.288 50.2901 125.646ZM48.1202 127.615C48.6627 127.615 48.9791 126.936 48.9791 125.51C48.9791 124.401 48.6853 123.835 48.1202 123.835C47.5778 123.835 47.2387 124.492 47.2387 125.827C47.2387 127.004 47.5326 127.592 48.1202 127.592V127.615ZM58.6981 125.103C58.6981 125.442 58.6529 126.234 58.6529 126.597C58.6529 126.959 58.6529 127.525 58.6981 127.909C58.5399 127.887 58.2913 127.864 58.0201 127.864C57.7488 127.864 57.5002 127.864 57.342 127.909C57.4324 127.23 57.4324 126.302 57.4324 125.397C57.4324 124.492 57.1386 124.243 56.7091 124.243C56.0989 124.243 55.9406 124.854 55.9406 125.646C55.9406 126.687 55.9406 127.321 56.0084 127.909C55.7598 127.887 55.579 127.864 55.3304 127.864C55.0817 127.864 54.9009 127.864 54.6523 127.909C54.7201 127.185 54.7201 126.529 54.7201 126.053C54.7201 124.424 54.6975 124.243 54.6523 123.586C54.8783 123.609 55.1722 123.631 55.2852 123.631C55.3982 123.631 55.5112 123.631 55.9406 123.586L55.8954 124.265C56.2345 123.767 56.6865 123.473 57.2516 123.473C58.1105 123.473 58.6303 123.948 58.6303 125.125L58.6981 125.103ZM70.2705 121.775C70.6095 121.775 70.9712 121.73 71.5814 121.73C72.2369 121.73 72.6889 121.775 72.915 121.911C73.3896 122.137 73.7287 122.568 73.7287 123.224C73.7287 124.084 73.2314 124.65 72.3499 124.876C72.6211 125.329 72.8246 125.669 72.9376 125.895L74.2485 127.932C73.8191 127.887 73.5704 127.887 73.4348 127.887C73.2992 127.887 73.0054 127.887 72.6211 127.932L71.0164 125.08H70.926V125.397C70.926 126.551 70.9712 127.343 70.9938 127.909C70.5417 127.864 70.4061 127.864 70.2705 127.864C70.1349 127.864 69.9993 127.864 69.5472 127.909C69.5924 127.23 69.615 126.234 69.615 125.601V124.039C69.615 123.247 69.5924 122.341 69.5472 121.73C69.6376 121.753 70.0219 121.775 70.2705 121.775ZM71.1068 124.695C72.0561 124.695 72.3499 124.152 72.3499 123.405C72.3499 123.088 72.3047 122.839 72.2369 122.703C72.0561 122.364 71.8301 122.251 70.9712 122.251C70.9486 123.02 70.9486 123.79 70.9486 124.673C71.0164 124.673 71.0842 124.673 71.1294 124.673L71.1068 124.695ZM81.9559 125.465C81.9559 125.465 81.9559 125.714 81.9559 125.736H79.4018C79.4018 126.8 79.8313 127.434 80.5998 127.434C81.0066 127.434 81.3682 127.298 81.7073 127.027L81.8203 127.117L81.6169 127.615C81.2326 127.909 80.8032 128.023 80.2607 128.023C78.9498 128.023 78.0909 127.185 78.0909 125.759C78.0909 124.333 78.882 123.45 80.1703 123.45C81.323 123.45 82.0011 124.175 82.0011 125.465H81.9559ZM80.758 125.329C80.7354 124.31 80.5094 123.858 80.1025 123.858C79.6957 123.858 79.4244 124.333 79.3792 125.329H80.758ZM90.3414 125.103C90.3414 125.442 90.2962 126.234 90.2962 126.597C90.2962 126.959 90.2962 127.525 90.3414 127.909C90.1832 127.887 89.9345 127.864 89.6633 127.864C89.3921 127.864 89.1434 127.864 88.9852 127.909C89.0756 127.23 89.0756 126.302 89.0756 125.397C89.0756 124.492 88.7818 124.243 88.3524 124.243C87.7421 124.243 87.5839 124.854 87.5839 125.646C87.5839 126.687 87.5839 127.321 87.6517 127.909C87.4031 127.887 87.2222 127.864 86.9736 127.864C86.725 127.864 86.5442 127.864 86.2956 127.909C86.3634 127.185 86.3634 126.529 86.3634 126.053C86.3634 124.424 86.3408 124.243 86.2956 123.586C86.5216 123.609 86.8154 123.631 86.9284 123.631C87.0414 123.631 87.1544 123.631 87.5839 123.586L87.5387 124.265C87.8777 123.767 88.3298 123.473 88.8948 123.473C89.7537 123.473 90.2736 123.948 90.2736 125.125L90.3414 125.103ZM96.4666 122.047C96.4214 122.296 96.3762 123.156 96.3762 123.631H97.1673C97.1673 123.631 97.1447 123.767 97.1447 123.858C97.1447 123.948 97.1447 124.016 97.1673 124.084H96.3762C96.3084 124.989 96.3084 125.759 96.3084 126.076C96.3084 126.8 96.3536 127.14 96.4214 127.298C96.4892 127.457 96.5796 127.525 96.8282 127.525C96.9412 127.525 97.1221 127.525 97.2351 127.434V127.796C96.9864 127.932 96.6022 128.023 96.2632 128.023C95.4947 128.023 95.1331 127.547 95.1331 126.619C95.1331 126.393 95.2009 124.492 95.2009 124.152V124.084H94.568C94.568 124.084 94.5906 123.948 94.5906 123.88C94.5906 123.79 94.5906 123.699 94.568 123.631H95.2009C95.2009 123.428 95.2009 123.224 95.1557 122.568C95.5851 122.386 95.9693 122.228 96.3762 122.002L96.4666 122.07V122.047ZM104.897 124.922C104.897 125.216 104.875 126.823 104.875 126.891C104.875 127.389 104.965 127.547 105.349 127.547H105.395V127.774C105.078 127.932 104.852 128.023 104.581 128.023C104.151 128.023 103.88 127.774 103.722 127.366C103.383 127.841 103.021 128.023 102.569 128.023C101.778 128.023 101.281 127.525 101.281 126.846C101.281 126.212 101.575 125.782 102.705 125.51C103.632 125.306 103.677 125.171 103.677 124.899C103.677 124.446 103.338 124.129 102.818 124.129C102.434 124.129 101.936 124.356 101.756 124.627H101.688L101.575 124.084C102.072 123.677 102.682 123.45 103.247 123.45C104.242 123.45 104.875 123.903 104.875 124.944L104.897 124.922ZM103.044 127.389C103.428 127.389 103.699 127.095 103.699 126.506C103.699 126.212 103.699 125.872 103.699 125.555C103.632 125.601 103.406 125.691 103.225 125.759C102.569 125.963 102.524 126.415 102.524 126.71C102.524 127.117 102.727 127.366 103.044 127.366V127.389ZM110.367 121.164C110.616 121.164 110.887 121.164 111.045 121.119C111 122.16 110.977 123.088 110.977 124.537C110.977 125.895 111 126.846 111.045 127.887C110.887 127.841 110.638 127.841 110.367 127.841C110.096 127.841 109.847 127.841 109.689 127.887C109.734 126.846 109.757 125.963 109.757 124.989C109.757 123.043 109.734 122.522 109.689 121.119C109.847 121.142 110.118 121.164 110.367 121.164Z" fill="white"/>
<path d="M52.6861 43.957V50.7022L43.4417 59.9599L40.074 56.5873L52.6861 43.957Z" fill="white"/>
<path d="M22.3537 47.284C26.1509 43.4814 33.3836 44.5905 33.3836 44.5905C33.3836 44.5905 34.4911 51.8563 30.6939 55.6363C26.8967 59.4163 19.664 58.3298 19.664 58.3298C19.664 58.3298 18.5565 51.064 22.3537 47.284Z" fill="white"/>
<path d="M80.9164 45.9712H77.7295V60.2085H80.9164V45.9712Z" fill="white"/>
</g>
<defs>
<clipPath id="clip0_162_2388">
<rect width="111" height="128" fill="white"/>
</clipPath>
</defs>
</svg>
