<svg width="208" height="67" viewBox="0 0 208 67" fill="none" xmlns="http://www.w3.org/2000/svg">
<g clip-path="url(#clip0_162_2359)">
<path d="M20.7285 13.0085C24.1832 16.4319 23.1961 22.9852 23.1961 22.9852C23.1961 22.9852 16.5828 23.9877 13.128 20.5399C9.6733 17.0921 10.6604 10.5633 10.6604 10.5633C10.6604 10.5633 17.2737 9.56074 20.7285 13.0085Z" fill="white"/>
<path d="M9.45115 42.6942C12.9059 39.2709 19.5192 40.249 19.5192 40.249C19.5192 40.249 20.531 46.8023 17.0516 50.2256C13.5722 53.649 6.98348 52.6709 6.98348 52.6709C6.98348 52.6709 5.97174 46.1176 9.45115 42.6942Z" fill="white"/>
<path d="M8.85894 26.1641C13.7449 26.1641 17.7179 31.4947 17.7179 31.4947C17.7179 31.4947 13.7449 36.8254 8.85894 36.8254C3.97295 36.8254 0 31.4947 0 31.4947C0 31.4947 3.97295 26.1641 8.85894 26.1641Z" fill="white"/>
<path d="M37.1138 8.77847C37.1138 13.6201 31.7343 17.5569 31.7343 17.5569C31.7343 17.5569 26.3547 13.6201 26.3547 8.77847C26.3547 3.93686 31.7343 0 31.7343 0C31.7343 0 37.1138 3.93686 37.1138 8.77847Z" fill="white"/>
<path d="M64.3075 14.965C61.6918 17.557 56.6577 16.8234 56.6577 16.8234C56.6577 16.8234 55.8927 11.8596 58.5331 9.24313C61.1735 6.62671 66.1829 7.38474 66.1829 7.38474C66.1829 7.38474 66.9479 12.3486 64.3075 14.965Z" fill="white"/>
<path d="M58.0643 28.3892C55.8434 30.59 51.6237 29.9542 51.6237 29.9542C51.6237 29.9542 50.9821 25.7728 53.203 23.5721C55.4239 21.3714 59.6436 22.0071 59.6436 22.0071C59.6436 22.0071 60.2852 26.1885 58.0643 28.3892Z" fill="white"/>
<path d="M66.5284 37.5344C64.801 39.2461 61.4943 38.7571 61.4943 38.7571C61.4943 38.7571 61.0008 35.4804 62.7282 33.7687C64.4555 32.0571 67.7622 32.5461 67.7622 32.5461C67.7622 32.5461 68.2558 35.8228 66.5284 37.5344Z" fill="white"/>
<path d="M70.6494 27.9005C66.9232 27.9005 63.9127 23.8414 63.9127 23.8414C63.9127 23.8414 66.9232 19.7822 70.6494 19.7822C74.3756 19.7822 77.3861 23.8414 77.3861 23.8414C77.3861 23.8414 74.3756 27.9005 70.6494 27.9005Z" fill="white"/>
<path d="M50.4392 17.239C47.4533 20.1977 41.7777 19.3419 41.7777 19.3419C41.7777 19.3419 40.914 13.6934 43.8999 10.7591C46.8858 7.82475 52.5614 8.65613 52.5614 8.65613C52.5614 8.65613 53.4251 14.3047 50.4392 17.239Z" fill="white"/>
<path d="M25.5157 32.2286V32.253V67.0001H29.8588V52.9888L37.1385 45.7753V39.6866L29.8588 46.9001V34.0136L37.1385 26.8246V20.7114L25.5157 32.2286Z" fill="white"/>
<path d="M47.0832 31.4458H43.7518V62.3783H47.0832V44.3812L54.3381 37.1922V32.4973L47.0832 39.6863V31.4458Z" fill="white"/>
<path d="M62.8763 41.5205H59.9644V54.3826H62.8763V41.5205Z" fill="white"/>
<path d="M91.3532 20.0754C92.7104 20.1243 94.339 20.1732 96.1404 20.1732C101.791 20.1732 104.876 20.0754 106.332 19.9287C106.184 20.8824 106.135 21.2247 106.135 22.0316C106.135 22.5696 106.184 23.4254 106.332 24.2813C102.285 24.0367 95.4248 23.67 94.9313 23.67C94.6845 26.9711 94.6845 31.7638 94.6845 34.5758C98.3613 34.5269 102.112 34.3802 106.135 34.1846C105.937 35.3338 105.888 35.774 105.888 36.4342C105.888 37.3878 106.085 37.9258 106.135 38.4882C102.088 38.2437 98.5094 38.0481 94.6845 38.0481V41.5448C94.6845 44.1367 94.8326 50.3966 95.0793 54.4557C93.2533 54.2601 91.7973 54.2112 90.9337 54.2112C90.07 54.2112 88.6634 54.2601 86.788 54.4557C87.0347 50.8123 87.1828 45.2616 87.1828 41.5448V32.8397C87.1828 29.0984 87.0347 23.6944 86.788 19.9287L91.3285 20.0754H91.3532ZM136.413 40.8357C136.413 41.3736 136.413 42.1805 136.363 42.3273H121.878C121.878 48.3181 124.346 51.8393 128.64 51.8393C130.91 51.8393 133.032 51.1302 134.858 49.5897L135.475 50.0298L134.365 52.8419C132.193 54.4802 129.775 55.0915 126.74 55.0915C119.312 55.0915 114.426 50.4455 114.426 42.4251C114.426 34.4046 118.868 29.563 126.147 29.563C132.662 29.563 136.438 33.5732 136.438 40.8112L136.413 40.8357ZM129.651 40.0776C129.503 34.4291 128.294 31.8371 125.925 31.8371C123.556 31.8371 122.1 34.4291 121.878 40.0776H129.651ZM160.744 29.7831C160.497 30.9324 160.448 32.3751 160.448 33.3287C160.448 34.478 160.448 35.5294 160.497 36.6787L160.053 37.07C159.288 36.532 158.449 36.3608 157.487 36.3608C154.501 36.3608 152.601 38.6105 152.601 41.2024C152.601 49.663 152.749 51.2035 152.996 54.4068C151.589 54.2112 150.627 54.1623 149.22 54.1623C148.011 54.1623 147.295 54.2112 145.445 54.4068C145.593 52.4017 145.839 50.201 145.839 44.0634C145.839 35.0648 145.691 33.0108 145.445 30.1988C147.221 30.3944 148.381 30.4433 148.924 30.4433C149.467 30.4433 150.947 30.3944 152.403 30.1988L152.255 36.3119L152.354 36.4097C154.18 31.7638 156.549 29.7097 159.979 29.7097L160.793 29.7586L160.744 29.7831ZM177.129 20.7846C177.129 22.9853 175.353 24.7459 173.132 24.7459C170.911 24.7459 169.134 22.9853 169.134 20.7846C169.134 18.5838 170.911 16.8232 173.132 16.8232C175.353 16.8232 177.129 18.5838 177.129 20.7846ZM173.132 30.4922C174.538 30.4922 175.55 30.3944 176.907 30.2477C176.562 34.1112 176.512 37.9992 176.512 40.6645C176.512 47.7068 176.661 50.8612 176.907 54.4802C175.55 54.2846 174.538 54.2357 173.132 54.2357C171.725 54.2357 170.911 54.2846 169.356 54.4802C169.603 50.3232 169.751 47.9269 169.751 40.8846C169.751 37.5346 169.702 34.1357 169.356 30.2721C170.763 30.4189 171.725 30.5167 173.132 30.5167V30.4922ZM208 40.8357C208 41.3736 208 42.1805 207.951 42.3273H193.465C193.465 48.3181 195.933 51.8393 200.227 51.8393C202.497 51.8393 204.619 51.1302 206.445 49.5897L207.062 50.0298L205.952 52.8419C203.78 54.4802 201.362 55.0915 198.327 55.0915C190.899 55.0915 186.013 50.4455 186.013 42.4251C186.013 34.4046 190.455 29.563 197.734 29.563C204.249 29.563 208.025 33.5732 208.025 40.8112L208 40.8357ZM201.239 40.0776C201.091 34.4291 199.881 31.8371 197.512 31.8371C195.143 31.8371 193.687 34.4291 193.465 40.0776H201.239ZM87.701 60.2265C87.9725 60.2265 88.2686 60.2265 88.5647 60.1776C88.7374 60.7889 89.0582 61.6937 89.5024 62.8919L90.2921 65.0192C90.8843 63.5765 91.5999 61.7915 92.1428 60.1776C92.2909 60.2021 92.4143 60.2265 92.5623 60.2265C92.7104 60.2265 92.8338 60.2265 92.9818 60.1776C91.8467 62.8429 90.8596 65.2638 90.3167 66.8532C90.0453 66.8043 89.9466 66.8043 89.8972 66.8043C89.8479 66.8043 89.7492 66.8043 89.4777 66.8532C88.8115 65.0192 87.5529 61.8648 86.8373 60.1776C87.1581 60.2021 87.4296 60.2265 87.7257 60.2265H87.701ZM100.78 63.6499C100.78 63.9678 100.755 65.7039 100.755 65.7773C100.755 66.3152 100.854 66.4864 101.273 66.4864H101.323V66.7309C100.977 66.9021 100.73 66.9999 100.434 66.9999C99.9653 66.9999 99.6692 66.7309 99.4965 66.2908C99.1263 66.8043 98.7315 66.9999 98.238 66.9999C97.3743 66.9999 96.8314 66.4619 96.8314 65.7284C96.8314 65.0437 97.1522 64.5791 98.386 64.2857C99.3978 64.0656 99.4471 63.9189 99.4471 63.6254C99.4471 63.1364 99.077 62.794 98.5094 62.794C98.0899 62.794 97.547 63.0386 97.3496 63.332H97.2756L97.1522 62.7451C97.6951 62.305 98.3613 62.0605 98.9783 62.0605C100.064 62.0605 100.755 62.5495 100.755 63.6743L100.78 63.6499ZM98.7562 66.3152C99.1757 66.3152 99.4718 65.9973 99.4718 65.3616C99.4718 65.0437 99.4718 64.6769 99.4718 64.3346C99.3978 64.3835 99.151 64.4813 98.9536 64.5546C98.238 64.7747 98.1886 65.2638 98.1886 65.5816C98.1886 66.0218 98.4107 66.2908 98.7562 66.2908V66.3152ZM109.984 62.5006C109.811 62.7696 109.713 63.0875 109.614 63.5032H109.392C109.268 62.843 108.923 62.5251 108.405 62.5251C107.664 62.5251 107.245 63.2342 107.245 64.5057C107.245 65.7039 107.763 66.3152 108.701 66.3152C109.071 66.3152 109.515 66.1196 109.713 65.8506L109.836 65.9484C109.737 66.144 109.688 66.3152 109.614 66.5108C109.392 66.7065 108.923 66.9265 108.281 66.9265C106.603 66.9265 105.764 65.8995 105.764 64.4568C105.764 63.0141 106.801 61.9871 108.331 61.9871C108.972 61.9871 109.491 62.1338 110.009 62.4517L109.984 62.5006ZM118.349 63.6499C118.349 63.9678 118.325 65.7039 118.325 65.7773C118.325 66.3152 118.424 66.4864 118.843 66.4864H118.892V66.7309C118.547 66.9021 118.3 66.9999 118.004 66.9999C117.535 66.9999 117.239 66.7309 117.066 66.2908C116.696 66.8043 116.301 66.9999 115.808 66.9999C114.944 66.9999 114.401 66.4619 114.401 65.7284C114.401 65.0437 114.722 64.5791 115.956 64.2857C116.968 64.0656 117.017 63.9189 117.017 63.6254C117.017 63.1364 116.647 62.794 116.079 62.794C115.66 62.794 115.117 63.0386 114.919 63.332H114.845L114.722 62.7451C115.265 62.305 115.931 62.0605 116.548 62.0605C117.634 62.0605 118.325 62.5495 118.325 63.6743L118.349 63.6499ZM116.326 66.3152C116.745 66.3152 117.042 65.9973 117.042 65.3616C117.042 65.0437 117.042 64.6769 117.042 64.3346C116.968 64.3835 116.721 64.4813 116.523 64.5546C115.808 64.7747 115.758 65.2638 115.758 65.5816C115.758 66.0218 115.981 66.2908 116.326 66.2908V66.3152ZM125.136 60.5444C125.086 60.8134 125.037 61.7426 125.037 62.2561H125.901C125.901 62.2561 125.876 62.4028 125.876 62.5006C125.876 62.5984 125.876 62.6718 125.901 62.7451H125.037C124.963 63.7232 124.963 64.5546 124.963 64.897C124.963 65.6794 125.012 66.0462 125.086 66.2174C125.16 66.3886 125.259 66.4619 125.53 66.4619C125.654 66.4619 125.851 66.4619 125.975 66.3641V66.7554C125.703 66.9021 125.284 66.9999 124.913 66.9999C124.074 66.9999 123.68 66.4864 123.68 65.4838C123.68 65.2393 123.754 63.1853 123.754 62.8185V62.7451H123.063C123.063 62.7451 123.087 62.5984 123.087 62.5251C123.087 62.4273 123.087 62.3294 123.063 62.2561H123.754C123.754 62.036 123.754 61.8159 123.704 61.1068C124.173 60.9112 124.593 60.74 125.037 60.4955L125.136 60.5689V60.5444ZM132.144 60.3488C132.144 60.7645 131.798 61.1068 131.379 61.1068C130.959 61.1068 130.614 60.7645 130.614 60.3488C130.614 59.9331 130.959 59.5908 131.379 59.5908C131.798 59.5908 132.144 59.9331 132.144 60.3488ZM131.379 62.2316C131.65 62.2316 131.848 62.2316 132.119 62.1827C132.045 62.9163 132.045 63.6743 132.045 64.1878C132.045 65.5572 132.07 66.1685 132.119 66.8532C131.848 66.8043 131.65 66.8043 131.379 66.8043C131.107 66.8043 130.959 66.8043 130.638 66.8532C130.688 66.0462 130.713 65.5816 130.713 64.2123C130.713 63.5765 130.713 62.9163 130.638 62.1583C130.91 62.1827 131.107 62.2072 131.379 62.2072V62.2316ZM141.718 64.4324C141.718 65.9729 140.756 66.9999 139.325 66.9999C137.893 66.9999 136.931 66.1685 136.931 64.6524C136.931 63.0386 137.992 62.0605 139.325 62.0605C140.805 62.0605 141.718 62.9652 141.718 64.4324ZM139.349 66.5597C139.942 66.5597 140.287 65.8262 140.287 64.2857C140.287 63.0875 139.966 62.4762 139.349 62.4762C138.757 62.4762 138.387 63.1853 138.387 64.628C138.387 65.8995 138.708 66.5353 139.349 66.5353V66.5597ZM150.898 63.8455C150.898 64.2123 150.849 65.0681 150.849 65.4594C150.849 65.8506 150.849 66.4619 150.898 66.8776C150.725 66.8532 150.454 66.8287 150.158 66.8287C149.862 66.8287 149.59 66.8287 149.417 66.8776C149.516 66.1441 149.516 65.1415 149.516 64.1634C149.516 63.1853 149.195 62.9163 148.727 62.9163C148.06 62.9163 147.888 63.5765 147.888 64.4324C147.888 65.5572 147.888 66.2419 147.962 66.8776C147.69 66.8532 147.493 66.8287 147.221 66.8287C146.95 66.8287 146.752 66.8287 146.481 66.8776C146.555 66.0951 146.555 65.386 146.555 64.8725C146.555 63.1119 146.53 62.9163 146.481 62.2072C146.728 62.2316 147.048 62.2561 147.172 62.2561C147.295 62.2561 147.419 62.2561 147.888 62.2072L147.838 62.9408C148.208 62.4028 148.702 62.0849 149.319 62.0849C150.256 62.0849 150.824 62.5984 150.824 63.87L150.898 63.8455ZM163.533 60.251C163.903 60.251 164.298 60.2021 164.964 60.2021C165.679 60.2021 166.173 60.251 166.42 60.3977C166.938 60.6422 167.308 61.1068 167.308 61.8159C167.308 62.7451 166.765 63.3565 165.803 63.601C166.099 64.09 166.321 64.4568 166.444 64.7013L167.876 66.9021C167.407 66.8532 167.135 66.8532 166.987 66.8532C166.839 66.8532 166.518 66.8532 166.099 66.9021L164.347 63.8211H164.248V64.1634C164.248 65.4105 164.298 66.2663 164.322 66.8776C163.829 66.8287 163.681 66.8287 163.533 66.8287C163.384 66.8287 163.236 66.8287 162.743 66.8776C162.792 66.1441 162.817 65.0681 162.817 64.3835V62.6962C162.817 61.8404 162.792 60.8623 162.743 60.2021C162.842 60.2265 163.261 60.251 163.533 60.251ZM164.446 63.4054C165.482 63.4054 165.803 62.8185 165.803 62.0116C165.803 61.6692 165.753 61.4002 165.679 61.2535C165.482 60.8867 165.235 60.7645 164.298 60.7645C164.273 61.5959 164.273 62.4273 164.273 63.3809C164.347 63.3809 164.421 63.3809 164.47 63.3809L164.446 63.4054ZM176.29 64.2367C176.29 64.2367 176.29 64.5057 176.29 64.5302H173.502C173.502 65.6794 173.971 66.3641 174.81 66.3641C175.254 66.3641 175.649 66.2174 176.019 65.924L176.142 66.0218L175.92 66.5597C175.501 66.8776 175.032 66.9999 174.44 66.9999C173.008 66.9999 172.071 66.0951 172.071 64.5546C172.071 63.0141 172.934 62.0605 174.341 62.0605C175.599 62.0605 176.34 62.8429 176.34 64.2367H176.29ZM174.983 64.09C174.958 62.9897 174.711 62.5006 174.267 62.5006C173.823 62.5006 173.527 63.0141 173.477 64.09H174.983ZM185.445 63.8455C185.445 64.2123 185.396 65.0681 185.396 65.4594C185.396 65.8506 185.396 66.4619 185.445 66.8776C185.273 66.8532 185.001 66.8287 184.705 66.8287C184.409 66.8287 184.138 66.8287 183.965 66.8776C184.064 66.1441 184.064 65.1415 184.064 64.1634C184.064 63.1853 183.743 62.9163 183.274 62.9163C182.608 62.9163 182.435 63.5765 182.435 64.4324C182.435 65.5572 182.435 66.2419 182.509 66.8776C182.237 66.8532 182.04 66.8287 181.769 66.8287C181.497 66.8287 181.3 66.8287 181.028 66.8776C181.102 66.0951 181.102 65.386 181.102 64.8725C181.102 63.1119 181.078 62.9163 181.028 62.2072C181.275 62.2316 181.596 62.2561 181.719 62.2561C181.843 62.2561 181.966 62.2561 182.435 62.2072L182.386 62.9408C182.756 62.4028 183.249 62.0849 183.866 62.0849C184.804 62.0849 185.371 62.5984 185.371 63.87L185.445 63.8455ZM192.133 60.5444C192.083 60.8134 192.034 61.7426 192.034 62.2561H192.898C192.898 62.2561 192.873 62.4028 192.873 62.5006C192.873 62.5984 192.873 62.6718 192.898 62.7451H192.034C191.96 63.7232 191.96 64.5546 191.96 64.897C191.96 65.6794 192.009 66.0462 192.083 66.2174C192.158 66.3886 192.256 66.4619 192.528 66.4619C192.651 66.4619 192.848 66.4619 192.972 66.3641V66.7554C192.7 66.9021 192.281 66.9999 191.911 66.9999C191.072 66.9999 190.677 66.4864 190.677 65.4838C190.677 65.2393 190.751 63.1853 190.751 62.8185V62.7451H190.06C190.06 62.7451 190.085 62.5984 190.085 62.5251C190.085 62.4273 190.085 62.3294 190.06 62.2561H190.751C190.751 62.036 190.751 61.8159 190.702 61.1068C191.17 60.9112 191.59 60.74 192.034 60.4955L192.133 60.5689V60.5444ZM201.337 63.6499C201.337 63.9678 201.313 65.7039 201.313 65.7773C201.313 66.3152 201.411 66.4864 201.831 66.4864H201.88V66.7309C201.535 66.9021 201.288 66.9999 200.992 66.9999C200.523 66.9999 200.227 66.7309 200.054 66.2908C199.684 66.8043 199.289 66.9999 198.796 66.9999C197.932 66.9999 197.389 66.4619 197.389 65.7284C197.389 65.0437 197.71 64.5791 198.944 64.2857C199.955 64.0656 200.005 63.9189 200.005 63.6254C200.005 63.1364 199.635 62.794 199.067 62.794C198.647 62.794 198.105 63.0386 197.907 63.332H197.833L197.71 62.7451C198.253 62.305 198.919 62.0605 199.536 62.0605C200.622 62.0605 201.313 62.5495 201.313 63.6743L201.337 63.6499ZM199.314 66.3152C199.733 66.3152 200.029 65.9973 200.029 65.3616C200.029 65.0437 200.029 64.6769 200.029 64.3346C199.955 64.3835 199.709 64.4813 199.511 64.5546C198.796 64.7747 198.746 65.2638 198.746 65.5816C198.746 66.0218 198.968 66.2908 199.314 66.2908V66.3152ZM207.309 59.5908C207.58 59.5908 207.877 59.5908 208.049 59.5419C208 60.6667 207.975 61.6692 207.975 63.2342C207.975 64.7013 208 65.7284 208.049 66.8532C207.877 66.8043 207.605 66.8043 207.309 66.8043C207.013 66.8043 206.741 66.8043 206.569 66.8532C206.618 65.7284 206.643 64.7747 206.643 63.7232C206.643 61.6203 206.618 61.0579 206.569 59.5419C206.741 59.5663 207.038 59.5908 207.309 59.5908Z" fill="white"/>
</g>
<defs>
<clipPath id="clip0_162_2359">
<rect width="208" height="67" fill="white"/>
</clipPath>
</defs>
</svg>
