<svg width="180" height="180" viewBox="0 0 180 180" fill="none" xmlns="http://www.w3.org/2000/svg">
<g clip-path="url(#clip0_382_24)">
<path opacity="0.5" d="M143.41 54.8501H39.105V67.884H143.41V54.8501Z" fill="#394F33"/>
<path d="M137 35C135.34 35 134 33.6842 134 32.0542V12.9458C134 11.3158 135.34 10 137 10C138.66 10 140 11.3158 140 12.9458V32.0477C140 33.6777 138.66 34.9935 137 34.9935V35Z" fill="#394F33"/>
<path d="M158.982 48C158.113 48 157.252 47.604 156.662 46.8398C155.628 45.499 155.827 43.526 157.106 42.4422L172.143 29.694C173.422 28.6102 175.304 28.8186 176.338 30.1595C177.372 31.5003 177.173 33.4733 175.894 34.5571L160.857 47.3053C160.307 47.7707 159.644 48 158.982 48Z" fill="#394F33"/>
<path d="M149.985 36.9934C149.554 36.9934 149.123 36.9013 148.705 36.704C147.212 36.0002 146.582 34.2373 147.292 32.7573L159.314 7.68908C160.024 6.21564 161.802 5.58417 163.295 6.288C164.788 6.99183 165.418 8.7547 164.708 10.2347L152.686 35.3095C152.175 36.3751 151.107 37 149.985 37V36.9934Z" fill="#394F33"/>
<path d="M62.5371 97.0492L59.9295 91.843H57.5856V97.0492H55.7104V84.689H60.5008C61.0942 84.689 61.6215 84.7768 62.0903 84.9599C62.5591 85.143 62.962 85.3846 63.2989 85.7068C63.6358 86.029 63.8922 86.4097 64.068 86.8491C64.2511 87.2957 64.339 87.779 64.339 88.2989C64.339 89.1922 64.1046 89.9098 63.6285 90.459C63.1524 91.0082 62.5664 91.3816 61.8779 91.5794L64.7272 97.0492H62.5371ZM61.8852 86.8857C61.497 86.5415 60.9916 86.3731 60.369 86.3731H57.5929V90.2613H60.369C60.9916 90.2613 61.497 90.0929 61.8852 89.7561C62.2734 89.4192 62.4639 88.9433 62.4639 88.3282C62.4639 87.7131 62.2734 87.2298 61.8852 86.893V86.8857Z" fill="#394F33"/>
<path d="M68.1915 93.1609C68.1915 93.9224 68.382 94.5302 68.7629 94.9695C69.1438 95.4089 69.7004 95.6285 70.4329 95.6285C70.931 95.6285 71.3339 95.5553 71.6415 95.4088C71.9491 95.2624 72.2568 95.0354 72.5717 94.7205L73.6998 95.7823C73.4654 96.0166 73.2383 96.2143 73.0112 96.3827C72.7842 96.5511 72.5424 96.6903 72.2788 96.8074C72.0151 96.9246 71.7367 97.0125 71.4291 97.071C71.1214 97.1296 70.7772 97.1589 70.3963 97.1589C69.8396 97.1589 69.3196 97.0784 68.8434 96.9246C68.36 96.7708 67.9425 96.5145 67.5909 96.1631C67.232 95.8116 66.9537 95.3429 66.7412 94.7645C66.5288 94.186 66.4263 93.4831 66.4263 92.6483C66.4263 91.2131 66.7705 90.1074 67.4517 89.3239C68.1329 88.5404 69.0412 88.1523 70.1765 88.1523C70.7699 88.1523 71.2972 88.2549 71.7587 88.4672C72.2202 88.6796 72.6157 88.9651 72.9307 89.3386C73.2456 89.712 73.4947 90.1514 73.6631 90.6786C73.8316 91.1985 73.9122 91.7696 73.9122 92.3993V93.1828H68.1989L68.1915 93.1609ZM72.0883 91.279C72.059 91.1106 72.0004 90.9275 71.9052 90.7298C71.766 90.393 71.5463 90.1221 71.246 89.9244C70.9457 89.7193 70.5867 89.6241 70.1692 89.6241C69.7517 89.6241 69.3928 89.7267 69.0852 89.9244C68.7775 90.1294 68.5578 90.393 68.4186 90.7298C68.3234 90.9275 68.2648 91.1106 68.2428 91.279C68.2208 91.4474 68.1989 91.6671 68.1915 91.9307H72.1542C72.1396 91.6671 72.1249 91.4474 72.0956 91.279H72.0883Z" fill="#394F33"/>
<path d="M82.4678 95.5773C82.2847 95.9214 82.0283 96.2143 81.706 96.456C81.3837 96.6903 80.9955 96.8733 80.5414 96.9832C80.0873 97.1003 79.6038 97.1589 79.0838 97.1589C78.3659 97.1589 77.6994 97.071 77.0841 96.9099C76.4688 96.7415 75.9048 96.4047 75.3848 95.8921L76.5494 94.7279C76.9083 95.1013 77.3112 95.3429 77.758 95.4674C78.2048 95.5919 78.6443 95.6505 79.0838 95.6505C79.6258 95.6505 80.0873 95.5553 80.4535 95.3576C80.8197 95.1599 81.0102 94.8524 81.0102 94.435C81.0102 94.1348 80.9223 93.8931 80.7392 93.7174C80.556 93.5416 80.2557 93.4318 79.8309 93.3952L78.4245 93.2707C77.5895 93.2048 76.9523 92.9705 76.4981 92.5824C76.044 92.1943 75.8243 91.6158 75.8243 90.8397C75.8243 90.415 75.9121 90.0269 76.0879 89.6974C76.2637 89.3679 76.4981 89.0823 76.7984 88.8553C77.0988 88.6283 77.4503 88.4599 77.8459 88.3354C78.2414 88.2109 78.6736 88.1523 79.1424 88.1523C79.8016 88.1523 80.4096 88.2256 80.9662 88.3793C81.5229 88.5331 81.999 88.7821 82.4092 89.1409L81.2959 90.2685C81.0175 90.0342 80.6879 89.8731 80.3143 89.7706C79.9408 89.6754 79.5452 89.6241 79.1277 89.6241C78.593 89.6241 78.1975 89.7267 77.9265 89.939C77.6628 90.144 77.5309 90.4223 77.5309 90.7518C77.5309 91.0154 77.6115 91.2424 77.78 91.4181C77.9484 91.6012 78.2707 91.711 78.7468 91.755L80.1385 91.8794C80.9736 91.9453 81.6181 92.1797 82.0723 92.5824C82.5264 92.9778 82.7608 93.5782 82.7608 94.3617C82.7608 94.8231 82.6656 95.2331 82.4825 95.5773H82.4678Z" fill="#394F33"/>
<path d="M86.2179 93.1609C86.2179 93.9224 86.4084 94.5302 86.7892 94.9695C87.1701 95.4089 87.7268 95.6285 88.4593 95.6285C88.9574 95.6285 89.3602 95.5553 89.6679 95.4088C89.9755 95.2624 90.2831 95.0354 90.5981 94.7205L91.7261 95.7823C91.4917 96.0166 91.2647 96.2143 91.0376 96.3827C90.8105 96.5511 90.5688 96.6903 90.3051 96.8074C90.0414 96.9246 89.7631 97.0125 89.4555 97.071C89.1478 97.1296 88.8035 97.1589 88.4227 97.1589C87.866 97.1589 87.3459 97.0784 86.8698 96.9246C86.3864 96.7708 85.9689 96.5145 85.6173 96.1631C85.2584 95.8116 84.98 95.3429 84.7676 94.7645C84.5552 94.186 84.4526 93.4831 84.4526 92.6483C84.4526 91.2131 84.7969 90.1074 85.4781 89.3239C86.1593 88.5404 87.0676 88.1523 88.2029 88.1523C88.7962 88.1523 89.3236 88.2549 89.7851 88.4672C90.2465 88.6796 90.6421 88.9651 90.957 89.3386C91.272 89.712 91.521 90.1514 91.6895 90.6786C91.858 91.1985 91.9385 91.7696 91.9385 92.3993V93.1828H86.2252L86.2179 93.1609ZM90.1147 91.279C90.0854 91.1106 90.0268 90.9275 89.9316 90.7298C89.7924 90.393 89.5726 90.1221 89.2723 89.9244C88.972 89.7193 88.6131 89.6241 88.1956 89.6241C87.7781 89.6241 87.4192 89.7267 87.1115 89.9244C86.8039 90.1294 86.5841 90.393 86.445 90.7298C86.3498 90.9275 86.2911 91.1106 86.2692 91.279C86.2472 91.4474 86.2252 91.6671 86.2179 91.9307H90.1806C90.166 91.6671 90.1513 91.4474 90.122 91.279H90.1147Z" fill="#394F33"/>
<path d="M99.1019 90.3198C98.9042 90.1221 98.7137 89.9756 98.5233 89.8804C98.3328 89.7852 98.0838 89.734 97.7835 89.734C97.3 89.734 96.8825 89.9097 96.5383 90.2612C96.194 90.6127 96.0255 91.096 96.0255 91.711V97.0564H94.2529V88.2549H95.9889V89.2068C96.2233 88.8919 96.5456 88.6429 96.9631 88.4452C97.3806 88.2475 97.8347 88.1523 98.3328 88.1523C98.7577 88.1523 99.1459 88.2182 99.4828 88.3427C99.8197 88.4672 100.135 88.6869 100.435 88.9871L99.0946 90.3271L99.1019 90.3198Z" fill="#394F33"/>
<path d="M105.284 97.0491H103.841L100.611 88.2476H102.486L104.566 94.4423L106.632 88.2476H108.507L105.277 97.0491H105.284Z" fill="#394F33"/>
<path d="M111.21 93.1609C111.21 93.9224 111.401 94.5302 111.781 94.9695C112.162 95.4089 112.719 95.6285 113.451 95.6285C113.95 95.6285 114.352 95.5553 114.66 95.4088C114.968 95.2624 115.275 95.0354 115.59 94.7205L116.718 95.7823C116.484 96.0166 116.257 96.2143 116.03 96.3827C115.803 96.5511 115.561 96.6903 115.297 96.8074C115.034 96.9246 114.755 97.0125 114.448 97.071C114.14 97.1296 113.796 97.1589 113.415 97.1589C112.858 97.1589 112.338 97.0784 111.862 96.9246C111.379 96.7708 110.961 96.5145 110.609 96.1631C110.251 95.8116 109.972 95.3429 109.76 94.7645C109.547 94.186 109.445 93.4831 109.445 92.6483C109.445 91.2131 109.789 90.1074 110.47 89.3239C111.151 88.5404 112.06 88.1523 113.195 88.1523C113.788 88.1523 114.316 88.2549 114.777 88.4672C115.239 88.6796 115.634 88.9651 115.949 89.3386C116.264 89.712 116.513 90.1514 116.682 90.6786C116.85 91.1985 116.931 91.7696 116.931 92.3993V93.1828H111.217L111.21 93.1609ZM115.107 91.279C115.078 91.1106 115.019 90.9275 114.924 90.7298C114.785 90.393 114.565 90.1221 114.265 89.9244C113.964 89.7193 113.605 89.6241 113.188 89.6241C112.77 89.6241 112.411 89.7267 112.104 89.9244C111.796 90.1294 111.576 90.393 111.437 90.7298C111.342 90.9275 111.283 91.1106 111.261 91.279C111.239 91.4474 111.217 91.6671 111.21 91.9307H115.173C115.158 91.6671 115.143 91.4474 115.114 91.279H115.107Z" fill="#394F33"/>
<path d="M124.299 97.0492V96.1119C123.962 96.5147 123.611 96.7929 123.252 96.9394C122.893 97.0858 122.461 97.159 121.977 97.159C121.538 97.159 121.128 97.0931 120.754 96.9467C120.38 96.8076 120.066 96.6172 119.824 96.3755C119.604 96.1559 119.428 95.8996 119.296 95.614C119.165 95.3284 119.062 95.0136 118.989 94.6841C118.916 94.3545 118.879 94.0177 118.857 93.6662C118.842 93.3221 118.828 92.9779 118.828 92.6411C118.828 92.3043 118.835 91.9674 118.857 91.616C118.872 91.2718 118.916 90.935 118.989 90.6055C119.055 90.2833 119.157 89.9757 119.296 89.6828C119.428 89.39 119.604 89.141 119.824 88.9213C120.066 88.6797 120.373 88.4893 120.747 88.3502C121.12 88.211 121.523 88.1451 121.963 88.1451C122.439 88.1451 122.856 88.211 123.23 88.3502C123.603 88.4893 123.948 88.7529 124.27 89.1337V84.689H126.043V97.0492H124.307H124.299ZM124.204 91.5208C124.16 91.1693 124.079 90.8618 123.955 90.5908C123.83 90.3272 123.64 90.1149 123.398 89.9538C123.157 89.8 122.834 89.7195 122.446 89.7195C122.058 89.7195 121.721 89.8 121.479 89.9538C121.245 90.1075 121.054 90.3199 120.923 90.5908C120.791 90.8544 120.703 91.1693 120.659 91.5208C120.615 91.8722 120.6 92.2457 120.6 92.6411C120.6 93.0365 120.622 93.41 120.659 93.7614C120.695 94.1129 120.783 94.4278 120.923 94.6987C121.054 94.9696 121.237 95.182 121.479 95.3431C121.714 95.4968 122.036 95.5774 122.446 95.5774C122.856 95.5774 123.157 95.4968 123.398 95.3431C123.64 95.1893 123.823 94.9696 123.955 94.6987C124.079 94.4278 124.167 94.1129 124.204 93.7614C124.248 93.41 124.263 93.0365 124.263 92.6411C124.263 92.2457 124.241 91.8722 124.204 91.5208Z" fill="#394F33"/>
<path d="M119.253 107.366H62.1123V108.831H119.253V107.366Z" fill="#394F33"/>
<path d="M119.253 113.502H62.1123V114.967H119.253V113.502Z" fill="#394F33"/>
<path d="M119.253 119.639H62.1123V121.103H119.253V119.639Z" fill="#394F33"/>
<path d="M41.8665 167V60.4956C41.8665 57.3177 44.4374 54.7475 47.6164 54.7475H136.078C139.257 54.7475 141.828 57.3177 141.828 60.4956V167H151.694V54.7182C151.694 48.1354 146.362 42.8047 139.777 42.8047H43.9174C37.3324 42.8047 32 48.1354 32 54.7182V167H41.8665Z" fill="#394F33"/>
</g>
<defs>
<clipPath id="clip0_382_24">
<rect width="151" height="164" fill="white" transform="translate(29 3)"/>
</clipPath>
</defs>
</svg>
