<svg width="180" height="180" viewBox="0 0 180 180" fill="none" xmlns="http://www.w3.org/2000/svg">
<g clip-path="url(#clip0_382_21)">
<path d="M167.618 51.1156L126.063 7.44039C125.176 6.50974 124.003 6 122.753 6H60.5452C59.2917 6 58.1116 6.5136 57.2246 7.45198L11.6414 55.599C10.7838 56.5065 10.7874 57.9739 11.6451 58.8775C12.0739 59.3293 12.6347 59.5533 13.1991 59.5533C13.7635 59.5533 14.3279 59.3255 14.7568 58.8737L60.3363 10.7228C60.3913 10.6649 60.4646 10.634 60.5415 10.634H122.75C122.827 10.634 122.9 10.6649 122.955 10.7228L164.51 54.3942C164.554 54.4405 164.65 54.5409 164.573 54.7301C164.496 54.9193 164.367 54.9193 164.305 54.9193H35.4134C34.2003 54.9193 33.2143 55.9581 33.2143 57.2363C33.2143 58.5145 34.2003 59.5533 35.4134 59.5533H164.309C166.215 59.5533 167.915 58.3562 168.641 56.4988C169.367 54.6413 168.967 52.529 167.618 51.1118V51.1156Z" fill="#394F33"/>
<path d="M103.819 132.353H76.331V82.3757H47.0393V132.353H36.3737V65.5582C36.3737 64.28 35.3878 63.2412 34.1747 63.2412C32.9615 63.2412 31.9756 64.28 31.9756 65.5582V136.987H103.819C105.033 136.987 106.019 135.948 106.019 134.67C106.019 133.392 105.033 132.353 103.819 132.353ZM51.5144 107.666H57.9247C58.731 107.666 59.3834 108.353 59.3834 109.203C59.3834 110.052 58.731 110.739 57.9247 110.739H51.5144V107.669V107.666Z" fill="#394F33"/>
<path d="M151.554 98.7181V65.5543C151.554 64.2761 150.568 63.2373 149.355 63.2373C148.142 63.2373 147.156 64.2761 147.156 65.5543V98.7181C147.156 99.9963 148.142 101.035 149.355 101.035C150.568 101.035 151.554 99.9963 151.554 98.7181Z" fill="#394F33"/>
<path d="M139.159 76.3323C139.159 69.6092 133.969 64.1411 127.588 64.1411C121.207 64.1411 116.017 69.6092 116.017 76.3323C116.017 83.0555 121.207 88.5236 127.588 88.5236C133.969 88.5236 139.159 83.0555 139.159 76.3323ZM120.412 76.3323C120.412 72.1656 123.63 68.7751 127.584 68.7751C131.539 68.7751 134.757 72.1656 134.757 76.3323C134.757 80.4991 131.539 83.8896 127.584 83.8896C123.63 83.8896 120.412 80.4991 120.412 76.3323Z" fill="#394F33"/>
<path d="M140.852 93.0723L134.918 88.9635C133.903 88.2607 132.539 88.5581 131.872 89.6277C131.205 90.6974 131.487 92.1339 132.503 92.8368L137.388 96.2157L149.461 123.668C149.743 124.309 149.476 125.07 148.871 125.367C148.578 125.51 148.248 125.526 147.944 125.406C147.64 125.29 147.398 125.054 147.262 124.742L141.189 110.932C140.68 109.77 139.371 109.264 138.268 109.805C137.674 110.094 137.264 110.631 137.088 111.241C136.959 111.535 136.886 111.863 136.886 112.207V129.994C136.886 130.121 136.813 130.229 136.707 130.275C136.685 130.279 136.663 130.283 136.641 130.287C136.6 130.295 136.564 130.31 136.523 130.318L117.168 133.372C117.076 133.388 116.999 133.361 116.93 133.299C116.86 133.237 116.827 133.156 116.827 133.06V109.21C116.827 107.932 115.841 106.893 114.628 106.893C113.415 106.893 112.429 107.932 112.429 109.21V113.763L107.994 123.077L107.965 123.143C107.682 123.784 106.96 124.062 106.356 123.765C106.062 123.622 105.839 123.367 105.725 123.046C105.615 122.726 105.626 122.378 105.762 122.069L117.721 94.8719L122.251 93.0569C123.388 92.6012 123.956 91.2651 123.523 90.068C123.091 88.8709 121.823 88.2684 120.686 88.728L114.485 91.2149L101.774 120.123C101.144 121.556 101.082 123.162 101.598 124.645C102.115 126.128 103.149 127.31 104.508 127.974C105.271 128.345 106.07 128.522 106.858 128.522C108.965 128.522 110.988 127.267 111.941 125.132L112.432 124.101V133.064C112.432 134.504 113.026 135.871 114.063 136.813C114.137 136.879 114.214 136.941 114.291 137.002C114.32 137.18 114.371 137.362 114.445 137.535L117.754 145.355L110.413 153.754C107.862 156.674 108.001 161.281 110.724 164.022C112.029 165.339 113.73 166.054 115.529 166.054C115.603 166.054 115.672 166.054 115.746 166.054C117.626 165.992 119.363 165.162 120.642 163.706L123.937 159.956L129.882 173.993C131.029 176.704 133.599 178.334 136.27 178.334C137.172 178.334 138.081 178.148 138.957 177.758C140.687 176.986 142.021 175.546 142.714 173.704C143.406 171.862 143.366 169.85 142.607 168.038L134.925 149.746C140.046 145.143 139.899 137.381 139.521 133.871C140.61 132.963 141.292 131.561 141.292 129.994V122.174L143.278 126.692C143.909 128.125 145.03 129.213 146.438 129.758C147.068 130.001 147.72 130.121 148.373 130.121C149.175 130.121 149.978 129.936 150.729 129.569C153.537 128.198 154.761 124.676 153.464 121.718L140.863 93.0646L140.852 93.0723ZM117.41 160.562C116.941 161.099 116.299 161.404 115.606 161.427C114.925 161.454 114.258 161.184 113.759 160.682C112.759 159.674 112.707 157.979 113.646 156.901L119.7 149.974L121.984 155.365L117.41 160.566V160.562ZM135.211 138.559C134.999 141.358 134.255 143.587 133.005 145.208L131.447 141.501C130.956 140.331 129.655 139.802 128.548 140.32C127.437 140.837 126.935 142.204 127.426 143.374L138.576 169.919C138.854 170.587 138.869 171.325 138.616 172.004C138.363 172.684 137.872 173.213 137.234 173.499C135.959 174.07 134.46 173.449 133.895 172.113L119.338 137.728L135.215 135.222C135.281 136.157 135.314 137.315 135.215 138.559H135.211Z" fill="#394F33"/>
</g>
<defs>
<clipPath id="clip0_382_21">
<rect width="158" height="172.338" fill="white" transform="translate(11 6)"/>
</clipPath>
</defs>
</svg>
