<svg width="180" height="180" viewBox="0 0 180 180" fill="none" xmlns="http://www.w3.org/2000/svg">
<g clip-path="url(#clip0_382_22)">
<path d="M173.824 102.559C172.319 100.025 169.667 98.5113 166.723 98.5113H160.411L160.481 98.4126L151.309 91.9814C147.414 89.25 143 87.5246 138.355 86.8806C142.053 82.6636 144.162 77.2055 144.162 71.4512C144.162 58.5652 133.711 48.0815 120.865 48.0815C108.019 48.0815 97.5674 58.5652 97.5674 71.4512C97.5674 77.3982 99.8545 83.082 103.824 87.3695C100.515 88.0747 97.3144 89.2547 94.3196 90.8766L87.2803 82.1559C86.7085 81.446 85.7806 81.1357 84.8995 81.352C77.4618 83.1854 71.8847 86.1331 67.9057 90.3312C58.495 88.0183 43.2494 89.0102 42.5698 89.0572C41.7449 89.1136 41.0092 89.6026 40.6342 90.3454C40.2593 91.0881 40.3062 91.972 40.7514 92.6725L49.2436 105.991C49.0092 106.127 48.7796 106.264 48.5546 106.414C45.9676 108.177 44.257 110.979 43.8586 114.091C43.4603 117.203 44.4163 120.344 46.4738 122.708L49.267 125.91H42.8416V125.106C42.8416 120.748 36.2897 118.759 30.1971 118.759C24.1045 118.759 17.5526 120.743 17.5526 125.106V125.91H8.34332C7.04981 125.91 6 126.963 6 128.261C6 129.558 7.04981 130.611 8.34332 130.611H17.5666V145.777C17.5666 150.135 24.1185 152.124 30.2111 152.124C36.3038 152.124 42.8557 150.14 42.8557 145.777V144.893H42.8932C46.5581 144.893 49.5435 141.899 49.5435 138.222C49.5435 134.546 46.5581 131.551 42.8932 131.551H42.8557V130.611H53.3819L70.4131 150.135L62.7458 164.3C62.1271 165.442 62.5489 166.867 63.6878 167.487C64.8266 168.108 66.2467 167.685 66.8653 166.542L99.3249 106.574C100.445 104.51 102.592 103.227 104.935 103.227H166.723C168.017 103.227 169.137 103.866 169.798 104.98C170.459 106.094 170.482 107.387 169.868 108.525L139.546 164.54C138.927 165.682 139.349 167.107 140.488 167.727C140.844 167.92 141.228 168.014 141.603 168.014C142.433 168.014 143.239 167.567 143.665 166.782L173.988 110.767C175.389 108.172 175.333 105.112 173.828 102.578L173.824 102.559ZM30.2111 123.456C34.3166 123.456 36.9786 124.448 37.9066 125.101C36.9786 125.75 34.3166 126.747 30.2111 126.747C26.1057 126.747 23.4436 125.755 22.5157 125.101C23.4436 124.453 26.1057 123.456 30.2111 123.456ZM30.2111 147.413C25.6136 147.413 22.825 146.167 22.2532 145.552V130.165C24.5591 131.03 27.432 131.443 30.2111 131.443C32.9903 131.443 35.8632 131.03 38.169 130.165V145.552C37.5973 146.167 34.8134 147.413 30.2111 147.413ZM42.8885 136.243C43.9711 136.243 44.8522 137.127 44.8522 138.213C44.8522 139.299 43.9711 140.183 42.8885 140.183H42.851V136.243H42.8885ZM102.254 71.4465C102.254 61.1509 110.601 52.778 120.865 52.778C131.128 52.778 139.475 61.1509 139.475 71.4465C139.475 77.4641 136.588 83.082 131.733 86.5891H111.163C110.779 86.5891 110.395 86.5985 110.01 86.6079C105.155 83.1008 102.254 77.4406 102.254 71.4418V71.4465ZM46.9002 93.5657C52.3742 93.4105 62.1787 93.434 68.0042 95.2252C68.904 95.5026 69.8788 95.2111 70.4834 94.4871C73.6141 90.745 78.2398 88.0512 84.5901 86.2882L90.3313 93.4011C86.1274 96.4757 82.6311 100.448 80.1238 105.046L72.4049 119.187L62.9707 108.285C60.6368 105.591 57.2436 104.303 53.9021 104.548L46.9002 93.5704V93.5657ZM95.2054 104.317L72.7939 145.721L50.0122 119.606C48.8358 118.256 48.2875 116.461 48.5171 114.683C48.7421 112.906 49.7216 111.308 51.2026 110.297C53.8177 108.511 57.3561 108.972 59.4323 111.369L73.286 127.367L84.2387 107.303C86.835 102.545 90.6547 98.5442 95.2804 95.7376C100.075 92.8323 105.568 91.295 111.173 91.295H134.254C139.424 91.295 144.396 92.8652 148.633 95.8364L152.453 98.5113H104.944C100.881 98.5113 97.155 100.735 95.2147 104.317H95.2054Z" fill="#394F33"/>
<path d="M13.8218 116.263C15.1153 116.263 16.1651 115.21 16.1651 113.913V16.7012H125.542V38.3831C125.542 39.6807 126.592 40.7337 127.885 40.7337C129.179 40.7337 130.228 39.6807 130.228 38.3831V12H11.4785V113.913C11.4785 115.21 12.5283 116.263 13.8218 116.263Z" fill="#394F33"/>
</g>
<defs>
<clipPath id="clip0_382_22">
<rect width="169" height="156" fill="white" transform="translate(6 12)"/>
</clipPath>
</defs>
</svg>
