<svg width="180" height="180" viewBox="0 0 180 180" fill="none" xmlns="http://www.w3.org/2000/svg">
<g clip-path="url(#clip0_382_23)">
<path d="M62.7301 11V11.1123L51.2572 11.3807V22.4405H33V163.958H53.9062V163.852H57.4755V17.4786L62.7301 17.3538V163.759H68.9485V18.2588L144.782 29.7929V170H151V24.4315L62.7301 11Z" fill="#394F33"/>
<path d="M100.886 113.072L86.988 110.688C85.7132 107.33 83.3564 105.264 80.7447 105.264C76.7028 105.264 73.5376 110.058 73.5376 116.18C73.5376 122.303 76.7028 127.097 80.7447 127.097C83.4746 127.097 85.8997 124.85 87.1248 121.292L99.1325 123.352C99.4247 123.402 99.7232 123.427 100.015 123.427C101.234 123.427 102.416 122.996 103.361 122.197C104.536 121.205 105.208 119.75 105.208 118.209C105.208 115.656 103.392 113.497 100.886 113.066V113.072ZM80.7447 124.7C78.133 124.7 75.9255 120.799 75.9255 116.18C75.9255 111.562 78.133 107.661 80.7447 107.661C82.0195 107.661 83.2383 108.603 84.1462 110.214C83.3564 110.145 82.5791 110.388 81.9697 110.906C81.2981 111.474 80.9126 112.311 80.9126 113.197V117.71C80.9126 119.176 81.9573 120.412 83.3937 120.662L84.7369 120.893C83.8415 123.214 82.3242 124.706 80.7509 124.706L80.7447 124.7ZM101.757 120.293C101.147 120.812 100.339 121.036 99.5553 120.893L83.8104 118.19C83.5741 118.146 83.4 117.94 83.4 117.697V113.185C83.4 112.985 83.5119 112.86 83.5741 112.804C83.63 112.754 83.742 112.685 83.8912 112.685C83.9161 112.685 83.9472 112.685 83.9783 112.691L100.469 115.525C101.775 115.75 102.72 116.879 102.72 118.209C102.72 119.014 102.372 119.769 101.757 120.287V120.293Z" fill="#394F33"/>
</g>
<defs>
<clipPath id="clip0_382_23">
<rect width="118" height="159" fill="white" transform="translate(33 11)"/>
</clipPath>
</defs>
</svg>
