<svg width="36" height="36" viewBox="0 0 36 36" fill="none" xmlns="http://www.w3.org/2000/svg">
<g clip-path="url(#clip0_382_27)">
<path d="M17.5982 4.00916C12.4322 4.21627 8.22453 8.5223 8.00805 13.8229C7.88405 16.8604 9.0463 19.6196 10.9799 21.5763C13.6007 24.2277 15.5932 27.4615 16.9908 30.9542L17.1863 31.4418C17.4847 32.1882 18.5146 32.1882 18.813 31.4418L19.1051 30.7104C20.4965 27.2328 22.6024 24.1241 25.1602 21.4318C26.9173 19.5829 27.9996 17.0545 27.9996 14.2673C27.9996 8.45974 23.3044 3.77833 17.5982 4.00916ZM17.9996 18.884C15.5154 18.884 13.4999 16.8172 13.4999 14.2651C13.4999 11.713 15.5133 9.64627 17.9996 9.64627C20.486 9.64627 22.4994 11.713 22.4994 14.2651C22.4994 16.8172 20.486 18.884 17.9996 18.884Z" fill="white"/>
</g>
<defs>
<clipPath id="clip0_382_27">
<rect width="20" height="28" fill="white" transform="translate(8 4)"/>
</clipPath>
</defs>
</svg>
