<svg width="36" height="36" viewBox="0 0 36 36" fill="none" xmlns="http://www.w3.org/2000/svg">
<g clip-path="url(#clip0_382_28)">
<path d="M4.86133 30.4581C4.86133 30.7561 5.10379 31 5.40014 31H9.77529C10.0716 31 10.3141 30.7561 10.3141 30.4581V26.4883H4.86133V30.4581Z" fill="white"/>
<path d="M25.686 30.4581C25.686 30.7561 25.9285 31 26.2248 31H30.6C30.8963 31 31.1388 30.7561 31.1388 30.4581V26.4883H25.686V30.4581Z" fill="white"/>
<path d="M31.5887 15.6035C30.3871 14.5981 29.4873 13.2758 29.059 11.7637C28.3612 9.29517 27.3267 6.1627 26.7313 5.39313C26.567 5.17906 26.3622 5.00293 26.0928 5.00293H10.4457C10.1763 5.00293 9.70486 5.17906 9.53783 5.39313C8.93436 6.17625 7.77861 9.39001 7.00272 11.8721C6.55551 13.3002 5.72843 14.6036 4.53766 15.5032C2.18036 17.2781 1.98369 22.6921 1.99986 24.7976C2.00255 25.2691 2.38241 25.6512 2.85118 25.6566L13.9857 25.6674V28.1631H21.9547V25.6674L33.1458 25.6566C33.6146 25.6512 33.9945 25.2718 33.9972 24.7976C34.0133 22.7328 33.8247 17.4732 31.586 15.6035H31.5887ZM10.0147 22.012C10.0147 22.4483 9.66445 22.8005 9.23071 22.8005H5.94396C5.51021 22.8005 5.15999 22.4483 5.15999 22.012V19.5109C5.15999 19.0746 5.51021 18.7224 5.94396 18.7224H9.23071C9.66445 18.7224 10.0147 19.0746 10.0147 19.5109V22.012ZM21.1465 27.3502H14.7939V24.318H21.1465V27.3502ZM8.74578 14.9287L10.769 7.58261C10.7906 7.49319 10.8687 7.39563 11.0034 7.28995C11.1381 7.18427 11.2539 7.13008 11.3536 7.13008H24.9128C25.0125 7.13008 25.131 7.18427 25.263 7.28995C25.3977 7.39563 25.4759 7.49319 25.4974 7.58261L27.2512 14.9287H8.74578ZM30.8397 22.012C30.8397 22.4483 30.4895 22.8005 30.0558 22.8005H26.769C26.3353 22.8005 25.985 22.4483 25.985 22.012V19.5109C25.985 19.0746 26.3353 18.7224 26.769 18.7224H30.0558C30.4895 18.7224 30.8397 19.0746 30.8397 19.5109V22.012Z" fill="white"/>
</g>
<defs>
<clipPath id="clip0_382_28">
<rect width="32" height="26" fill="white" transform="translate(2 5)"/>
</clipPath>
</defs>
</svg>
